HIERARCHY
ROOT Hips
{
	OFFSET 0.000000 0.000000 0.000000
	CHANNELS 6 Xposition Yposition Zposition Zrotation Yrotation Xrotation 
	JOINT LHipJoint
	{
		OFFSET 0.000000 0.000000 0.000000
		CHANNELS 3 Zrotation Yrotation Xrotation
		JOINT LeftUpLeg
		{
			OFFSET 1.363060 -1.794630 0.839290
			CHANNELS 3 Zrotation Yrotation Xrotation
			JOINT LeftLeg
			{
				OFFSET 2.448110 -6.726130 0.000000
				CHANNELS 3 Zrotation Yrotation Xrotation
				JOINT LeftFoot
				{
					OFFSET 2.562200 -7.039590 0.000000
					CHANNELS 3 Zrotation Yrotation Xrotation
					JOINT LeftToeBase
					{
						OFFSET 0.157640 -0.433110 2.322550
						CHANNELS 3 Zrotation Yrotation Xrotation
						End Site
						{
							OFFSET 0.000000 0.000000 0.000000
						}
					}
				}
			}
		}
	}
	JOINT RHipJoint
	{
		OFFSET 0.000000 0.000000 0.000000
		CHANNELS 3 Zrotation Yrotation Xrotation
		JOINT RightUpLeg
		{
			OFFSET -1.305520 -1.794630 0.839290
			CHANNELS 3 Zrotation Yrotation Xrotation
			JOINT RightLeg
			{
				OFFSET -2.542530 -6.985550 0.000000
				CHANNELS 3 Zrotation Yrotation Xrotation
				JOINT RightFoot
				{
					OFFSET -2.568260 -7.056230 0.000000
					CHANNELS 3 Zrotation Yrotation Xrotation
					JOINT RightToeBase
					{
						OFFSET -0.164730 -0.452590 2.363150
						CHANNELS 3 Zrotation Yrotation Xrotation
						End Site
						{
							OFFSET 0.000000 0.000000 0.000000
						}
					}
				}
			}
		}
	}
	JOINT LowerBack
	{
		OFFSET 0.000000 0.000000 0.000000
		CHANNELS 3 Zrotation Yrotation Xrotation
		JOINT Spine
		{
			OFFSET 0.028270 2.035590 -0.193380
			CHANNELS 3 Zrotation Yrotation Xrotation
			JOINT Spine1
			{
				OFFSET 0.056720 2.048850 -0.042750
				CHANNELS 3 Zrotation Yrotation Xrotation
				JOINT Neck
				{
					OFFSET 0.000000 0.000000 0.000000
					CHANNELS 3 Zrotation Yrotation Xrotation
					JOINT Neck1
					{
						OFFSET -0.054170 1.746240 0.172020
						CHANNELS 3 Zrotation Yrotation Xrotation
						JOINT Head
						{
							OFFSET 0.104070 1.761360 -0.123970
							CHANNELS 3 Zrotation Yrotation Xrotation
							End Site
							{
								OFFSET 0.000000 0.000000 0.000000
							}
						}
					}
				}
				JOINT LeftShoulder
				{
					OFFSET 0.000000 0.000000 0.000000
					CHANNELS 3 Zrotation Yrotation Xrotation
					JOINT LeftArm
					{
						OFFSET 3.362410 1.200890 -0.311210
						CHANNELS 3 Zrotation Yrotation Xrotation
						JOINT LeftForeArm
						{
							OFFSET 4.983000 -0.000000 -0.000000
							CHANNELS 3 Zrotation Yrotation Xrotation
							JOINT LeftHand
							{
								OFFSET 3.483560 -0.000000 -0.000000
								CHANNELS 3 Zrotation Yrotation Xrotation
								JOINT LeftFingerBase
								{
									OFFSET 0.000000 0.000000 0.000000
									CHANNELS 3 Zrotation Yrotation Xrotation
									JOINT LeftHandIndex1
									{
										OFFSET 0.715260 -0.000000 -0.000000
										CHANNELS 3 Zrotation Yrotation Xrotation
										End Site
										{
											OFFSET 0.000000 0.000000 0.000000
										}
									}
								}
								JOINT LThumb
								{
									OFFSET 0.000000 0.000000 0.000000
									CHANNELS 3 Zrotation Yrotation Xrotation
									End Site
									{
										OFFSET 0.000000 0.000000 0.000000
									}
								}
							}
						}
					}
				}
				JOINT RightShoulder
				{
					OFFSET 0.000000 0.000000 0.000000
					CHANNELS 3 Zrotation Yrotation Xrotation
					JOINT RightArm
					{
						OFFSET -3.136600 1.374050 -0.404650
						CHANNELS 3 Zrotation Yrotation Xrotation
						JOINT RightForeArm
						{
							OFFSET -5.241900 -0.000000 -0.000000
							CHANNELS 3 Zrotation Yrotation Xrotation
							JOINT RightHand
							{
								OFFSET -3.444170 -0.000000 -0.000000
								CHANNELS 3 Zrotation Yrotation Xrotation
								JOINT RightFingerBase
								{
									OFFSET 0.000000 0.000000 0.000000
									CHANNELS 3 Zrotation Yrotation Xrotation
									JOINT RightHandIndex1
									{
										OFFSET -0.622530 -0.000000 -0.000000
										CHANNELS 3 Zrotation Yrotation Xrotation
										End Site
										{
											OFFSET 0.000000 0.000000 0.000000
										}
									}
								}
								JOINT RThumb
								{
									OFFSET 0.000000 0.000000 0.000000
									CHANNELS 3 Zrotation Yrotation Xrotation
									End Site
									{
										OFFSET 0.000000 0.000000 0.000000
									}
								}
							}
						}
					}
				}
			}
		}
	}
}
MOTION
Frames: 6
Frame Time: 0.008333
-3.841942 16.157440 0.382584 2.882774 79.963428 30.682034 -8.458943 -0.970195 -0.680659 -15.302279 -1.895607 -63.120377 -2.424366 2.542638 35.735777 1.274436 5.412937 -3.104884 0.890000 -0.000001 -16.033200 10.868717 -0.279900 -5.309718 7.948865 -9.124590 -29.915058 1.227764 -4.168221 56.732127 1.593273 19.750545 -5.896746 -0.134700 -0.000000 -69.769800 -0.314188 0.840854 9.104337 -0.833973 1.043364 -1.266862 -5.478581 1.037378 -0.289992 7.756381 -5.457127 -5.454499 -1.804512 -0.145041 0.236768 0.000000 0.000000 0.000000 2.150905 13.326188 2.923766 -67.730240 24.455344 27.688568 -1.560714 -61.578457 -0.002578 -7.499406 7.360647 -0.488725 0.033489 -0.049640 0.000000 0.000000 0.000000 0.000000 0.000000 0.000000 0.000000 4.502881 0.294751 -1.359510 68.304095 11.056592 9.543043 179.867963 87.571156 179.985180 -2.519831 -0.654253 0.007201 0.029007 -0.352351 0.000000 0.000000 0.000000 0.000000 0.000000 0.000000 0.000000 
-3.696681 16.129703 0.396571 3.802408 79.836333 31.395667 -8.469738 -1.004777 -0.738741 -15.159600 -2.193535 -63.198627 -2.247134 2.691430 37.760666 1.376776 5.840153 -3.852579 0.833400 -0.000000 -14.241500 10.967877 -0.274113 -5.338234 7.366390 -9.365558 -29.771649 1.057754 -4.245794 57.591262 1.586221 20.210104 -4.637428 0.269000 -0.000000 -71.643400 -0.618576 0.800100 9.166550 -0.904308 1.005485 -1.268008 -5.518026 1.000687 -0.341278 7.846182 -5.376461 -5.424102 -1.820528 -0.146549 0.245392 0.000000 0.000000 0.000000 2.133004 13.048186 2.942187 -67.672410 24.034674 27.779436 -1.585227 -61.310754 -0.002636 -7.475572 7.370112 -0.487616 0.032019 -0.048963 0.000000 0.000000 0.000000 0.000000 0.000000 0.000000 0.000000 4.651921 0.359686 -1.327347 68.689465 10.647831 9.412255 179.883677 88.073332 179.985665 -2.447835 -0.434689 0.002204 0.026175 -0.354588 0.000000 0.000000 0.000000 0.000000 0.000000 0.000000 0.000000 
-3.553770 16.104245 0.412058 4.874448 79.714811 32.246477 -8.474551 -1.034764 -0.821570 -15.134795 -2.416042 -63.198631 -2.099446 2.825328 39.683327 1.482426 6.265326 -4.775510 0.743500 0.000000 -13.101700 11.068808 -0.264288 -5.371139 6.767417 -9.619936 -29.657031 0.883025 -4.327916 58.480152 1.566253 20.593095 -3.338273 0.718700 -0.000000 -73.332400 -0.938927 0.758915 9.258755 -0.977110 0.967544 -1.263357 -5.552853 0.963877 -0.396459 7.923200 -5.275447 -5.377366 -1.837858 -0.148307 0.257531 0.000000 0.000000 0.000000 2.096958 12.733340 2.959849 -67.593708 23.520800 27.877195 -1.612546 -61.001861 -0.002678 -7.437099 7.368668 -0.484804 0.030191 -0.047890 0.000000 0.000000 0.000000 0.000000 0.000000 0.000000 0.000000 4.799326 0.436218 -1.293275 69.109127 10.223659 9.235093 179.903496 88.686914 179.985833 -2.426097 -0.207970 -0.002692 0.024086 -0.356572 0.000000 0.000000 0.000000 0.000000 0.000000 0.000000 0.000000 
-3.413114 16.081095 0.428647 6.009052 79.595367 33.146695 -8.474357 -1.058400 -0.925644 -15.209111 -2.557766 -63.105062 -1.981995 2.942472 41.459377 1.589787 6.680507 -5.845785 0.619600 -0.000000 -12.574800 11.170817 -0.251648 -5.407134 6.169119 -9.879904 -29.566353 0.705766 -4.413144 59.391949 1.533998 20.892961 -2.012733 1.205100 0.000000 -74.773000 -1.260700 0.718719 9.376643 -1.049234 0.930689 -1.252878 -5.582550 0.928102 -0.451713 7.981937 -5.155282 -5.312696 -1.856655 -0.150355 0.273734 0.000000 0.000000 0.000000 2.037860 12.393153 2.974367 -67.495197 22.913737 27.977673 -1.642611 -60.651399 -0.002709 -7.384287 7.356481 -0.480389 0.028003 -0.046456 0.000000 0.000000 0.000000 0.000000 0.000000 0.000000 0.000000 4.941816 0.520927 -1.259017 69.558257 9.796563 9.022352 179.927369 89.423005 179.985669 -2.458978 0.019085 -0.007688 0.022876 -0.358019 0.000000 0.000000 0.000000 0.000000 0.000000 0.000000 0.000000 
-3.274564 16.060192 0.445900 7.120753 79.474331 34.012991 -8.470772 -1.074366 -1.046362 -15.358290 -2.617540 -62.912089 -1.893384 3.042480 43.061177 1.696971 7.076844 -7.025970 0.462900 0.000000 -12.580600 11.272844 -0.236974 -5.445486 5.588614 -10.141392 -29.497620 0.527268 -4.499973 60.322423 1.490185 21.107049 -0.663674 1.721000 -0.000000 -75.939000 -1.570253 0.680298 9.515046 -1.117591 0.895450 -1.236100 -5.606262 0.893952 -0.500777 8.017986 -5.020438 -5.231202 -1.876797 -0.152673 0.293809 0.000000 0.000000 0.000000 1.954937 12.049182 2.983659 -67.380759 22.204765 28.082045 -1.675539 -60.254719 -0.002738 -7.316276 7.335213 -0.474271 0.025413 -0.044699 0.000000 0.000000 0.000000 0.000000 0.000000 0.000000 0.000000 5.076552 0.607039 -1.226922 70.030091 9.383493 8.788898 -0.044930 89.707913 -0.014815 -2.547494 0.239867 -0.012884 0.022630 -0.358639 0.000000 0.000000 0.000000 0.000000 0.000000 0.000000 0.000000 
-3.137882 16.041347 0.463291 8.131276 79.349192 34.769879 -8.466107 -1.082090 -1.178547 -15.555048 -2.598569 -62.621602 -1.830373 3.126014 44.477080 1.802005 7.446684 -8.272708 0.277999 -0.000000 -13.006800 11.373023 -0.221062 -5.485360 5.042617 -10.399409 -29.448337 0.349029 -4.586515 61.267099 1.435838 21.236163 0.701441 2.256600 -0.000001 -76.788300 -1.855049 0.644278 9.667906 -1.179430 0.862244 -1.213394 -5.623733 0.861859 -0.539819 8.028189 -4.873845 -5.132804 -1.898321 -0.155276 0.317957 0.000000 0.000000 0.000000 1.845801 11.713329 2.985604 -67.256145 21.400540 28.178343 -1.710916 -59.815366 -0.002773 -7.230977 7.308897 -0.466749 0.022413 -0.042687 0.000000 0.000000 0.000000 0.000000 0.000000 0.000000 0.000000 5.201470 0.689977 -1.198165 70.517112 8.997110 8.548164 -0.013864 88.699831 -0.015579 -2.688331 0.448320 -0.018581 0.023361 -0.358189 0.000000 0.000000 0.000000 0.000000 0.000000 0.000000 0.000000 
